<svg width="55" height="41" viewBox="0 0 55 41" fill="none" xmlns="http://www.w3.org/2000/svg">
<path d="M41.6453 2.09865C43.1922 1.30333 44.9109 0.888385 46.6469 0.888385H51.5797C53.9 0.888385 55.507 3.21814 54.6906 5.40094C53.1266 9.61093 50.0242 13.0688 46.0281 15.0831L22.5844 26.8745C22.1977 27.0647 21.7766 27.1684 21.3469 27.1684H9.51328C8.71406 27.1684 7.94922 26.814 7.42672 26.2002L1.14641 18.8349C0.563922 18.1519 0.77507 17.0973 1.57523 16.691L4.33898 15.3078C5.07461 14.9361 5.93484 14.9102 6.68594 15.2473L11.6102 17.4085L20.1609 13.138L7.53156 4.9687C6.63523 4.38864 6.70742 3.04784 7.66047 2.56806L11.6016 0.584089C12.8992 -0.104032 14.5664 -0.187886 15.993 0.35241L32.7422 6.67172L41.6453 2.09865ZM0 38.2337C0 36.7036 1.23148 35.4674 2.75 35.4674H52.25C53.7711 35.4674 55 36.7036 55 38.2337C55 39.7638 53.7711 41 52.25 41H2.75C1.23148 41 0 39.7638 0 38.2337Z" fill="white"/>
</svg>
